<mxfile host="Electron" agent="Mozilla/5.0 (Windows NT 10.0; Win64; x64) AppleWebKit/537.36 (KHTML, like Gecko) draw.io/28.1.2 Chrome/138.0.7204.243 Electron/37.4.0 Safari/537.36" version="28.1.2">
  <diagram name="Page-1" id="ksKuzov_Qk8sHgxxave7">
    <mxGraphModel dx="1426" dy="849" grid="1" gridSize="10" guides="1" tooltips="1" connect="1" arrows="1" fold="1" page="1" pageScale="1" pageWidth="1169" pageHeight="827" math="0" shadow="0">
      <root>
        <mxCell id="0" />
        <mxCell id="1" parent="0" />
        <mxCell id="akArkrjMevfdf9KIDSlY-1" value="crm_cust_info" style="swimlane;fontStyle=0;childLayout=stackLayout;horizontal=1;startSize=30;horizontalStack=0;resizeParent=1;resizeParentMax=0;resizeLast=0;collapsible=1;marginBottom=0;whiteSpace=wrap;html=1;fontSize=20;rounded=1;sketch=1;curveFitting=1;jiggle=2;fillColor=#3399FF;" parent="1" vertex="1">
          <mxGeometry x="320" y="410" width="170" height="90" as="geometry" />
        </mxCell>
        <mxCell id="akArkrjMevfdf9KIDSlY-2" value="cst_id" style="text;strokeColor=none;fillColor=none;align=left;verticalAlign=middle;spacingLeft=4;spacingRight=4;overflow=hidden;points=[[0,0.5],[1,0.5]];portConstraint=eastwest;rotatable=0;whiteSpace=wrap;html=1;fontSize=20;rounded=1;sketch=1;curveFitting=1;jiggle=2;" parent="akArkrjMevfdf9KIDSlY-1" vertex="1">
          <mxGeometry y="30" width="170" height="30" as="geometry" />
        </mxCell>
        <mxCell id="akArkrjMevfdf9KIDSlY-31" value="cst_key" style="text;strokeColor=none;fillColor=none;align=left;verticalAlign=middle;spacingLeft=4;spacingRight=4;overflow=hidden;points=[[0,0.5],[1,0.5]];portConstraint=eastwest;rotatable=0;whiteSpace=wrap;html=1;fontSize=20;rounded=1;sketch=1;curveFitting=1;jiggle=2;" parent="akArkrjMevfdf9KIDSlY-1" vertex="1">
          <mxGeometry y="60" width="170" height="30" as="geometry" />
        </mxCell>
        <mxCell id="akArkrjMevfdf9KIDSlY-5" value="crm_prd_info" style="swimlane;fontStyle=0;childLayout=stackLayout;horizontal=1;startSize=30;horizontalStack=0;resizeParent=1;resizeParentMax=0;resizeLast=0;collapsible=1;marginBottom=0;whiteSpace=wrap;html=1;fontSize=20;rounded=1;sketch=1;curveFitting=1;jiggle=2;fillColor=#3399FF;" parent="1" vertex="1">
          <mxGeometry x="320" y="240" width="170" height="60" as="geometry" />
        </mxCell>
        <mxCell id="akArkrjMevfdf9KIDSlY-7" value="prd_key" style="text;strokeColor=none;fillColor=none;align=left;verticalAlign=middle;spacingLeft=4;spacingRight=4;overflow=hidden;points=[[0,0.5],[1,0.5]];portConstraint=eastwest;rotatable=0;whiteSpace=wrap;html=1;fontSize=20;rounded=1;sketch=1;curveFitting=1;jiggle=2;" parent="akArkrjMevfdf9KIDSlY-5" vertex="1">
          <mxGeometry y="30" width="170" height="30" as="geometry" />
        </mxCell>
        <mxCell id="akArkrjMevfdf9KIDSlY-8" value="crm_sales_details" style="swimlane;fontStyle=0;childLayout=stackLayout;horizontal=1;startSize=30;horizontalStack=0;resizeParent=1;resizeParentMax=0;resizeLast=0;collapsible=1;marginBottom=0;whiteSpace=wrap;html=1;fontSize=20;rounded=1;sketch=1;curveFitting=1;jiggle=2;fillColor=#3399FF;" parent="1" vertex="1">
          <mxGeometry x="60" y="310" width="170" height="90" as="geometry" />
        </mxCell>
        <mxCell id="akArkrjMevfdf9KIDSlY-9" value="sls_prd_key" style="text;strokeColor=none;fillColor=none;align=left;verticalAlign=middle;spacingLeft=4;spacingRight=4;overflow=hidden;points=[[0,0.5],[1,0.5]];portConstraint=eastwest;rotatable=0;whiteSpace=wrap;html=1;fontSize=20;rounded=1;sketch=1;curveFitting=1;jiggle=2;" parent="akArkrjMevfdf9KIDSlY-8" vertex="1">
          <mxGeometry y="30" width="170" height="30" as="geometry" />
        </mxCell>
        <mxCell id="akArkrjMevfdf9KIDSlY-10" value="sls_cust_id" style="text;strokeColor=none;fillColor=none;align=left;verticalAlign=middle;spacingLeft=4;spacingRight=4;overflow=hidden;points=[[0,0.5],[1,0.5]];portConstraint=eastwest;rotatable=0;whiteSpace=wrap;html=1;fontSize=20;rounded=1;sketch=1;curveFitting=1;jiggle=2;" parent="akArkrjMevfdf9KIDSlY-8" vertex="1">
          <mxGeometry y="60" width="170" height="30" as="geometry" />
        </mxCell>
        <mxCell id="akArkrjMevfdf9KIDSlY-12" style="edgeStyle=orthogonalEdgeStyle;rounded=0;orthogonalLoop=1;jettySize=auto;html=1;exitX=1;exitY=0.5;exitDx=0;exitDy=0;entryX=-0.018;entryY=0.767;entryDx=0;entryDy=0;entryPerimeter=0;" parent="1" source="akArkrjMevfdf9KIDSlY-10" target="akArkrjMevfdf9KIDSlY-2" edge="1">
          <mxGeometry relative="1" as="geometry" />
        </mxCell>
        <mxCell id="akArkrjMevfdf9KIDSlY-13" style="edgeStyle=orthogonalEdgeStyle;rounded=0;orthogonalLoop=1;jettySize=auto;html=1;exitX=1;exitY=0.5;exitDx=0;exitDy=0;entryX=0;entryY=0.5;entryDx=0;entryDy=0;" parent="1" source="akArkrjMevfdf9KIDSlY-9" target="akArkrjMevfdf9KIDSlY-7" edge="1">
          <mxGeometry relative="1" as="geometry" />
        </mxCell>
        <mxCell id="akArkrjMevfdf9KIDSlY-15" value="erp_loc_a101" style="swimlane;fontStyle=0;childLayout=stackLayout;horizontal=1;startSize=30;horizontalStack=0;resizeParent=1;resizeParentMax=0;resizeLast=0;collapsible=1;marginBottom=0;whiteSpace=wrap;html=1;fontSize=20;rounded=1;sketch=1;curveFitting=1;jiggle=2;gradientColor=none;fillColor=#FF8000;" parent="1" vertex="1">
          <mxGeometry x="650" y="330" width="170" height="60" as="geometry" />
        </mxCell>
        <mxCell id="akArkrjMevfdf9KIDSlY-16" value="cid" style="text;strokeColor=none;fillColor=none;align=left;verticalAlign=middle;spacingLeft=4;spacingRight=4;overflow=hidden;points=[[0,0.5],[1,0.5]];portConstraint=eastwest;rotatable=0;whiteSpace=wrap;html=1;fontSize=20;rounded=1;sketch=1;curveFitting=1;jiggle=2;" parent="akArkrjMevfdf9KIDSlY-15" vertex="1">
          <mxGeometry y="30" width="170" height="30" as="geometry" />
        </mxCell>
        <mxCell id="akArkrjMevfdf9KIDSlY-17" value="&lt;span style=&quot;&quot;&gt;erp_px_cat_g1v2&lt;/span&gt;" style="swimlane;fontStyle=0;childLayout=stackLayout;horizontal=1;startSize=30;horizontalStack=0;resizeParent=1;resizeParentMax=0;resizeLast=0;collapsible=1;marginBottom=0;whiteSpace=wrap;html=1;fontSize=20;rounded=1;sketch=1;curveFitting=1;jiggle=2;fillColor=#FF8000;labelBackgroundColor=none;" parent="1" vertex="1">
          <mxGeometry x="650" y="190" width="170" height="60" as="geometry" />
        </mxCell>
        <mxCell id="akArkrjMevfdf9KIDSlY-18" value="id" style="text;strokeColor=none;fillColor=none;align=left;verticalAlign=middle;spacingLeft=4;spacingRight=4;overflow=hidden;points=[[0,0.5],[1,0.5]];portConstraint=eastwest;rotatable=0;whiteSpace=wrap;html=1;fontSize=20;rounded=1;sketch=1;curveFitting=1;jiggle=2;" parent="akArkrjMevfdf9KIDSlY-17" vertex="1">
          <mxGeometry y="30" width="170" height="30" as="geometry" />
        </mxCell>
        <mxCell id="akArkrjMevfdf9KIDSlY-19" value="erp_cust_az12" style="swimlane;fontStyle=0;childLayout=stackLayout;horizontal=1;startSize=30;horizontalStack=0;resizeParent=1;resizeParentMax=0;resizeLast=0;collapsible=1;marginBottom=0;whiteSpace=wrap;html=1;fontSize=20;rounded=1;sketch=1;curveFitting=1;jiggle=2;fillColor=#FF8000;" parent="1" vertex="1">
          <mxGeometry x="650" y="470" width="170" height="60" as="geometry" />
        </mxCell>
        <mxCell id="akArkrjMevfdf9KIDSlY-20" value="cid" style="text;strokeColor=none;fillColor=none;align=left;verticalAlign=middle;spacingLeft=4;spacingRight=4;overflow=hidden;points=[[0,0.5],[1,0.5]];portConstraint=eastwest;rotatable=0;whiteSpace=wrap;html=1;fontSize=20;rounded=1;sketch=1;curveFitting=1;jiggle=2;" parent="akArkrjMevfdf9KIDSlY-19" vertex="1">
          <mxGeometry y="30" width="170" height="30" as="geometry" />
        </mxCell>
        <mxCell id="akArkrjMevfdf9KIDSlY-32" style="edgeStyle=orthogonalEdgeStyle;rounded=0;orthogonalLoop=1;jettySize=auto;html=1;entryX=1;entryY=0.5;entryDx=0;entryDy=0;" parent="1" source="akArkrjMevfdf9KIDSlY-20" target="akArkrjMevfdf9KIDSlY-31" edge="1">
          <mxGeometry relative="1" as="geometry" />
        </mxCell>
        <mxCell id="akArkrjMevfdf9KIDSlY-33" style="edgeStyle=orthogonalEdgeStyle;rounded=0;orthogonalLoop=1;jettySize=auto;html=1;" parent="1" source="akArkrjMevfdf9KIDSlY-16" target="akArkrjMevfdf9KIDSlY-31" edge="1">
          <mxGeometry relative="1" as="geometry" />
        </mxCell>
        <mxCell id="akArkrjMevfdf9KIDSlY-34" style="edgeStyle=orthogonalEdgeStyle;rounded=0;orthogonalLoop=1;jettySize=auto;html=1;" parent="1" source="akArkrjMevfdf9KIDSlY-18" target="akArkrjMevfdf9KIDSlY-7" edge="1">
          <mxGeometry relative="1" as="geometry" />
        </mxCell>
        <mxCell id="akArkrjMevfdf9KIDSlY-35" value="" style="rounded=0;whiteSpace=wrap;html=1;fillColor=none;strokeColor=#3399FF;fontColor=#ffffff;" parent="1" vertex="1">
          <mxGeometry x="50" y="140" width="480" height="460" as="geometry" />
        </mxCell>
        <mxCell id="akArkrjMevfdf9KIDSlY-36" value="CRM" style="rounded=0;whiteSpace=wrap;html=1;strokeColor=none;fontSize=20;" parent="1" vertex="1">
          <mxGeometry x="230" y="110" width="120" height="60" as="geometry" />
        </mxCell>
        <mxCell id="akArkrjMevfdf9KIDSlY-37" value="" style="rounded=0;whiteSpace=wrap;html=1;fillColor=none;strokeColor=#FF8000;fontColor=#ffffff;" parent="1" vertex="1">
          <mxGeometry x="585" y="140" width="480" height="460" as="geometry" />
        </mxCell>
        <mxCell id="akArkrjMevfdf9KIDSlY-38" value="ERP" style="rounded=0;whiteSpace=wrap;html=1;strokeColor=none;fontSize=20;" parent="1" vertex="1">
          <mxGeometry x="770" y="110" width="120" height="60" as="geometry" />
        </mxCell>
        <mxCell id="gj9kwCKeAey1CyFXdAEF-1" value="PRODUCT" style="text;html=1;strokeColor=#6F0000;fillColor=#a20025;align=center;verticalAlign=middle;whiteSpace=wrap;overflow=hidden;fontSize=20;fontColor=#ffffff;labelBackgroundColor=none;" parent="1" vertex="1">
          <mxGeometry x="320" y="300" width="170" height="30" as="geometry" />
        </mxCell>
        <mxCell id="gj9kwCKeAey1CyFXdAEF-3" value="PRODUCT" style="text;html=1;strokeColor=#6F0000;fillColor=#a20025;align=center;verticalAlign=middle;whiteSpace=wrap;overflow=hidden;fontSize=20;fontColor=#ffffff;labelBackgroundColor=none;" parent="1" vertex="1">
          <mxGeometry x="650" y="250" width="170" height="30" as="geometry" />
        </mxCell>
        <mxCell id="gj9kwCKeAey1CyFXdAEF-4" value="CUSTOMER" style="text;html=1;strokeColor=#005700;fillColor=#008a00;align=center;verticalAlign=middle;whiteSpace=wrap;overflow=hidden;fontSize=20;fontColor=#ffffff;labelBackgroundColor=none;" parent="1" vertex="1">
          <mxGeometry x="320" y="500" width="170" height="30" as="geometry" />
        </mxCell>
        <mxCell id="gj9kwCKeAey1CyFXdAEF-5" value="CUSTOMER" style="text;html=1;strokeColor=#005700;fillColor=#008a00;align=center;verticalAlign=middle;whiteSpace=wrap;overflow=hidden;fontSize=20;fontColor=#ffffff;labelBackgroundColor=none;" parent="1" vertex="1">
          <mxGeometry x="650" y="390" width="170" height="30" as="geometry" />
        </mxCell>
        <mxCell id="gj9kwCKeAey1CyFXdAEF-6" value="CUSTOMER" style="text;html=1;strokeColor=#005700;fillColor=#008a00;align=center;verticalAlign=middle;whiteSpace=wrap;overflow=hidden;fontSize=20;fontColor=#ffffff;labelBackgroundColor=none;" parent="1" vertex="1">
          <mxGeometry x="650" y="530" width="170" height="30" as="geometry" />
        </mxCell>
        <mxCell id="gj9kwCKeAey1CyFXdAEF-7" value="SALES" style="text;html=1;strokeColor=#3700CC;fillColor=#6a00ff;align=center;verticalAlign=middle;whiteSpace=wrap;overflow=hidden;fontSize=20;fontColor=#ffffff;labelBackgroundColor=none;" parent="1" vertex="1">
          <mxGeometry x="60" y="400" width="170" height="30" as="geometry" />
        </mxCell>
      </root>
    </mxGraphModel>
  </diagram>
</mxfile>
